PathFileType	4	(X/Y/Z)	Patient3_R_AnkleIso_Processed.trc
DataRate	CameraRate	NumFrames	NumMarkers	Units	OrigDataRate	OrigDataStartFrame	OrigNumFrames
16.66000000000000	16.66000000000000	4	33	mm	16.66000000000000	13	       50
Frame#	Time	L.Toe			R.Toe			R.Shoulder			L.Heel			Neck			R.Heel			L.Shank.Lateral			R.Shank.Lateral			L.Midfoot.Superior			L.Elbow			R.Midfoot.Lateral			R.Midfoot.Superior			L.Shoulder			R.Thigh.Lateral			R.Elbow			Sacral			L.Thigh.Superior			R.Patella			R.Wrist			R.Shank.Superior			L.Wrist			R.Shank.Inferior			R.Thigh.Superior			R.Thigh.Inferior			L.Asis			L.Shank.Inferior			L.Midfoot.Lateral			Sternum			L.Shank.Superior			R.Asis			L.Patella			L.Thigh.Lateral			L.Thigh.Inferior			
		X1	Y1	Z1	X2	Y2	Z2	X3	Y3	Z3	X4	Y4	Z4	X5	Y5	Z5	X6	Y6	Z6	X7	Y7	Z7	X8	Y8	Z8	X9	Y9	Z9	X10	Y10	Z10	X11	Y11	Z11	X12	Y12	Z12	X13	Y13	Z13	X14	Y14	Z14	X15	Y15	Z15	X16	Y16	Z16	X17	Y17	Z17	X18	Y18	Z18	X19	Y19	Z19	X20	Y20	Z20	X21	Y21	Z21	X22	Y22	Z22	X23	Y23	Z23	X24	Y24	Z24	X25	Y25	Z25	X26	Y26	Z26	X27	Y27	Z27	X28	Y28	Z28	X29	Y29	Z29	X30	Y30	Z30	X31	Y31	Z31	X32	Y32	Z32	X33	Y33	Z33	

13	1.234693878	705.5663373	42.30914169	376.7998872	1077.838836	136.9347656	522.471865	471.3419377	1447.721912	508.9192988	414.8448546	33.31817339	427.07671	441.3936973	1467.184064	360.1730408	817.5653884	140.0368977	666.8251835	481.3312218	325.4676226	294.1323773	753.2473323	428.4276453	678.8103474	585.9787896	90.01243391	390.3476648	376.0430534	1115.540948	97.64571317	920.9841055	120.243097	669.9435682	977.3339942	188.5445877	596.5614882	488.4178092	1428.569288	218.720069	640.4653934	723.4159441	627.3143583	549.631578	1140.059592	656.9732546	416.9821533	971.331215	382.7748032	662.7106025	737.4854347	302.077052	781.4638235	597.6870822	576.7400056	650.0006054	1266.236366	465.3985278	805.6827604	493.2638003	612.9235387	549.4724788	1000.744085	-55.30344146	871.4826644	329.2547237	631.7518528	695.1189802	794.8179132	558.9299181	736.094677	689.7355475	562.9275997	614.334174	967.0993366	277.5542125	550.0499786	230.0179347	364.6723531	490.4748472	27.30395516	359.395661	580.7885904	1374.542193	378.4429131	573.9173237	381.8442525	333.2616039	560.3289034	994.063302	533.3535067	617.9754917	490.14953	344.5990342	563.5549335	657.0599976	257.5791533	642.9200713	608.1731253	322.4214848
14	1.295918367	705.5721137	42.28702542	376.7719912	1077.679609	158.1594319	504.3633515	470.7118996	1447.880929	509.6535117	414.8467252	33.3035893	427.0963085	440.7094675	1467.329576	360.9057683	828.3143463	133.759744	665.6297333	481.1118951	325.5090673	294.675127	757.6760289	429.4114915	676.8111884	585.9681014	90.00193232	390.3719281	375.7516215	1115.715227	98.17450233	932.7044128	121.2255667	660.5247808	978.86274	197.6707767	587.8370731	487.7495717	1428.830506	219.4057235	642.3410419	723.7811418	626.5663017	549.4704923	1140.237457	657.5865763	416.6211189	971.4424553	384.1077607	662.0601429	737.6119264	302.4667269	782.9381517	598.5798903	573.9697939	649.6256301	1266.617665	465.9736392	808.5844054	494.3641966	609.5575978	549.2749556	1001.205822	-54.89076904	875.0027537	330.476238	627.3311519	696.1168807	795.4942281	557.8356042	737.3479543	690.4767478	561.0201206	613.4281151	967.2434333	277.947266	549.9445151	230.099664	365.047527	490.4714661	27.31906854	359.3907743	580.1608094	1374.823337	379.073195	573.712386	381.9368965	333.6910349	560.6216119	994.406933	533.9061972	617.5120913	490.3200914	345.0687939	562.7970782	657.1859878	258.1560248	642.3506318	608.3287161	322.8633528
15	1.357142857	705.5714029	42.28374618	376.7372353	1081.059984	181.4194767	495.2014656	470.0899824	1448.012296	510.3945685	414.8475286	33.27571365	427.1199593	439.9355768	1467.435812	361.6524811	839.2118315	126.534821	660.9421302	480.8577881	325.4981524	295.1906346	761.732001	430.1238878	674.2133003	585.9533252	90.00236502	390.4008458	375.2927586	1115.792437	98.66162095	944.1358482	124.2125631	652.8231846	980.8100418	207.5063673	581.9855308	486.8904239	1428.997303	220.0740572	643.8762978	723.7659745	625.6730068	549.4486276	1140.394108	658.1793076	416.0279458	971.5260876	385.4562551	661.2614676	737.7472886	302.9652365	784.2464644	599.3838921	571.0326761	649.2078243	1266.898591	466.4114359	811.3130042	495.3229409	606.0068504	549.0041664	1001.649365	-54.46325719	878.2177896	331.6099182	622.6165247	696.8428521	795.9759589	556.7764146	738.377539	691.0687807	559.0301311	612.3596915	967.4079024	278.3707318	549.7924468	230.176944	365.4741499	490.4637199	27.32150484	359.3943176	579.4432927	1375.001879	379.6094225	573.4381212	382.098681	334.1004515	560.6739153	994.5762032	534.4891231	616.8722273	490.5206488	345.6100198	561.9209411	657.3160097	258.73846	641.6057997	608.4586691	323.4264541
16	1.418367347	705.5737909	42.30684637	376.702138	1085.702726	204.1725735	492.9714717	469.4676023	1448.08407	511.2150392	414.847014	33.23301879	427.145989	439.0553004	1467.518245	362.5079797	849.763553	120.0218557	654.7334634	480.6569695	325.4472403	295.5755125	765.2321951	430.7611098	671.4798565	585.9156952	89.97523057	390.4589608	374.722165	1115.714928	99.3347958	954.3829206	128.877115	647.5693718	982.5387387	216.9894269	578.7161796	485.7522539	1429.116955	220.7973635	645.0131505	723.7223725	624.7104867	549.5297868	1140.439892	658.7094846	415.1991307	971.6010743	386.5036014	660.4532753	737.9125707	303.3666757	785.415432	600.2991094	568.3158271	648.689821	1267.034891	466.7190964	813.820822	496.2911711	602.7609416	548.7252481	1002.046781	-53.79211625	881.054628	332.8168687	618.2903978	697.302567	796.5339414	555.8768505	739.230541	691.7779366	557.235622	611.2363093	967.5773147	278.7235641	549.6553793	230.2317537	365.8483456	490.4552826	27.31503752	359.4022323	578.5919956	1375.07488	380.1092713	573.0744179	382.2951471	334.5268377	560.3617334	994.6316368	534.96803	616.2501264	490.7149484	346.0802818	561.1126416	657.4209963	259.1797585	640.8933903	608.608606	323.8820382
